<?xml version="1.0" encoding="UTF-8" standalone="no"?>
<!-- Created with Inkscape (http://www.inkscape.org/) -->

<svg
   xmlns:dc="http://purl.org/dc/elements/1.1/"
   xmlns:cc="http://creativecommons.org/ns#"
   xmlns:rdf="http://www.w3.org/1999/02/22-rdf-syntax-ns#"
   xmlns:svg="http://www.w3.org/2000/svg"
   xmlns="http://www.w3.org/2000/svg"
   xmlns:sodipodi="http://sodipodi.sourceforge.net/DTD/sodipodi-0.dtd"
   xmlns:inkscape="http://www.inkscape.org/namespaces/inkscape"
   width="210mm"
   height="297mm"
   viewBox="0 0 744.09448819 1052.3622047"
   id="svg4296"
   version="1.1"
   inkscape:version="0.91 r13725"
   sodipodi:docname="logo.svg"
   inkscape:export-filename="/home/meandbur/Projects/terrapp/client/assets/images/logo.png"
   inkscape:export-xdpi="180.23126"
   inkscape:export-ydpi="180.23126">
  <defs
     id="defs4298">
    <clipPath
       clipPathUnits="userSpaceOnUse"
       id="clipPath16">
      <path
         d="M 0,130 130,130 130,0 0,0 0,130 Z"
         id="path18"
         inkscape:connector-curvature="0" />
    </clipPath>
  </defs>
  <sodipodi:namedview
     id="base"
     pagecolor="#ffffff"
     bordercolor="#666666"
     borderopacity="1.0"
     inkscape:pageopacity="0.0"
     inkscape:pageshadow="2"
     inkscape:zoom="1.979899"
     inkscape:cx="378.18407"
     inkscape:cy="764.27547"
     inkscape:document-units="px"
     inkscape:current-layer="layer1"
     showgrid="false"
     showguides="true"
     inkscape:guide-bbox="true"
     inkscape:window-width="1920"
     inkscape:window-height="1043"
     inkscape:window-x="0"
     inkscape:window-y="0"
     inkscape:window-maximized="1">
    <sodipodi:guide
       position="343.45187,688.92405"
       orientation="1,0"
       id="guide4954" />
    <sodipodi:guide
       position="480.83262,762.16011"
       orientation="1,0"
       id="guide4956" />
    <sodipodi:guide
       position="423.759,718.72355"
       orientation="1,0"
       id="guide4958" />
  </sodipodi:namedview>
  <metadata
     id="metadata4301">
    <rdf:RDF>
      <cc:Work
         rdf:about="">
        <dc:format>image/svg+xml</dc:format>
        <dc:type
           rdf:resource="http://purl.org/dc/dcmitype/StillImage" />
      </cc:Work>
    </rdf:RDF>
  </metadata>
  <g
     inkscape:label="Layer 1"
     inkscape:groupmode="layer"
     id="layer1">
    <g
       transform="matrix(1.25,0,0,-1.25,331.50543,346.38533)"
       id="g12">
      <g
         id="g14"
         clip-path="url(#clipPath16)">
        <g
           id="g20"
           transform="translate(106.1699,114.4023)">
          <path
             d="m 0,0 -18.9,10.793 c -0.916,0.621 -1.877,1.175 -2.881,1.646 l -0.043,0.026 -0.004,-0.006 c -7.938,3.709 -18.442,2.713 -29.924,-3.914 -24.59,-14.199 -44.699,-49.042 -44.699,-77.438 0,-14.989 5.605,-25.295 14.513,-29.601 l 18.557,-10.738 7.061,12.164 c 1.502,0.69 3.027,1.478 4.568,2.369 24.592,14.197 44.709,49.029 44.709,77.416 0,1.654 -0.074,3.246 -0.209,4.786 L 0,0 Z"
             style="fill:#9b250a;fill-opacity:1;fill-rule:nonzero;stroke:none"
             id="path22"
             inkscape:connector-curvature="0" />
        </g>
        <g
           id="g24"
           transform="translate(9.7559,43.9561)">
          <path
             d="m 0,0 c 0.379,-14.141 5.883,-23.893 14.477,-28.048 l 18.556,-10.738 7.061,12.164 c 1.054,0.484 2.125,1.037 3.199,1.619 L 0,0 Z"
             style="fill:#7f0404;fill-opacity:1;fill-rule:nonzero;stroke:none"
             id="path26"
             inkscape:connector-curvature="0" />
        </g>
        <g
           id="g28"
           transform="translate(87.2695,125.1953)">
          <path
             d="M 0,0 C -0.916,0.621 -1.877,1.175 -2.881,1.646 L -2.924,1.672 -2.928,1.666 c -7.885,3.684 -18.301,2.72 -29.689,-3.787 0.543,-0.326 1.101,-0.629 1.676,-0.906 l 18.556,-10.739 27.653,-3.287 3.632,6.26 L 0,0 Z"
             style="fill:#c92b00;fill-opacity:1;fill-rule:nonzero;stroke:none"
             id="path30"
             inkscape:connector-curvature="0" />
        </g>
        <g
           id="g32"
           transform="translate(54.5957,1.5605)">
          <path
             d="m 0,0 c -15.43,0.001 -25.398,12.729 -25.398,32.423 0,28.646 20.179,63.603 44.984,77.924 7.049,4.069 13.822,6.132 20.135,6.132 15.433,0 25.406,-12.731 25.406,-32.434 C 65.127,55.406 44.949,20.456 20.146,6.137 13.096,2.064 6.318,0 0.002,0 L 0,0 Z"
             style="fill:#a00000;fill-opacity:1;fill-rule:nonzero;stroke:none"
             id="path34"
             inkscape:connector-curvature="0" />
        </g>
        <g
           id="g36"
           transform="translate(94.3164,118.5996)">
          <path
             d="m 0,0 c -6.412,0 -13.281,-2.088 -20.414,-6.207 -24.959,-14.41 -45.266,-49.584 -45.266,-78.409 0,-20.036 10.19,-32.984 25.959,-32.984 6.416,0 13.289,2.091 20.428,6.212 24.955,14.409 45.258,49.576 45.258,78.394 C 25.965,-12.951 15.773,0 0,0 m 0,-1.119 c 14.695,0 24.846,-11.71 24.846,-31.875 0,-28.397 -20.112,-63.228 -44.7,-77.424 -7.126,-4.114 -13.875,-6.061 -19.867,-6.061 -14.691,0 -24.84,11.704 -24.84,31.863 0,28.395 20.114,63.241 44.707,77.439 7.12,4.113 13.864,6.058 19.854,6.058"
             style="fill:#ff794a;fill-opacity:1;fill-rule:nonzero;stroke:none"
             id="path38"
             inkscape:connector-curvature="0" />
        </g>
        <g
           id="g40"
           transform="translate(74.4199,110.1035)">
          <path
             d="m 0,0 0.029,-10.26 c 19.19,11.078 34.793,2.172 34.858,-19.879 0.06,-22.051 -15.442,-48.92 -34.631,-60 l 0.029,-10.26 c -24.127,-13.928 -43.75,-2.744 -43.828,24.979 0.078,-27.723 19.701,-38.907 43.828,-24.979 24.127,13.932 43.621,47.7 43.543,75.421 C 43.75,2.744 24.127,13.93 0,0"
             style="fill:#ff4800;fill-opacity:1;fill-rule:nonzero;stroke:none"
             id="path42"
             inkscape:connector-curvature="0" />
        </g>
        <g
           id="g44"
           transform="translate(74.4199,110.1035)">
          <path
             d="m 0,0 c -24.127,-13.928 -43.621,-47.697 -43.543,-75.42 0.078,-27.723 19.701,-38.907 43.828,-24.979 l -0.029,10.26 c -19.203,-11.088 -34.809,-2.178 -34.869,19.871 -0.065,22.051 15.439,48.92 34.642,60.008 L 0,0"
             style="fill:#c92b00;fill-opacity:1;fill-rule:nonzero;stroke:none"
             id="path46"
             inkscape:connector-curvature="0" />
        </g>
        <g
           id="g48"
           transform="translate(74.4492,99.8438)">
          <path
             d="m 0,0 0.018,-5.943 5.363,3.095 0.008,-2.498 c 12.869,4.553 22.605,-2.847 22.65,-18.47 0.045,-15.623 -9.619,-34.241 -22.473,-44.542 l 0.006,-2.479 -5.361,-3.098 0.016,-5.944 c -19.204,-11.088 -34.809,-2.179 -34.87,19.871 0.061,-22.05 15.666,-30.959 34.87,-19.871 19.189,11.08 34.691,37.948 34.63,60 C 34.793,2.172 19.189,11.078 0,0"
             style="fill:#ff794a;fill-opacity:1;fill-rule:nonzero;stroke:none"
             id="path50"
             inkscape:connector-curvature="0" />
        </g>
        <g
           id="g52"
           transform="translate(74.4492,99.8438)">
          <path
             d="m 0,0 c -19.203,-11.088 -34.707,-37.957 -34.643,-60.008 0.061,-22.05 15.666,-30.959 34.87,-19.871 l -0.016,5.944 -5.365,-3.095 -0.006,2.479 c -12.873,-4.553 -22.621,2.858 -22.668,18.479 -0.043,15.625 9.633,34.236 22.488,44.535 l -0.008,2.498 5.256,3.032 0.11,0.064 L 0,0"
             style="fill:#ef683f;fill-opacity:1;fill-rule:nonzero;stroke:none"
             id="path54"
             inkscape:connector-curvature="0" />
        </g>
        <g
           id="g56"
           transform="translate(79.8379,94.498)">
          <path
             d="m 0,0 0.057,-20.82 c 3.213,-0.278 5.38,-3.019 5.394,-7.58 0.014,-4.565 -2.133,-9.793 -5.332,-13.773 l 0.059,-20.84 C 13.031,-52.711 22.695,-34.094 22.65,-18.471 22.605,-2.848 12.869,4.553 0,0 m 5.02,-17.172 1.503,7.783 0.014,0.009 c 0.067,0.444 0.231,0.935 0.463,1.433 0.523,1.093 1.314,1.967 2.115,2.43 0.557,0.32 1.121,0.443 1.602,0.3 1.166,-0.338 1.392,-2.133 0.519,-3.978 -0.234,-0.483 -0.521,-0.931 -0.849,-1.326 l 0.002,-0.017 -5.369,-6.634 m 7.539,1.084 c 0.261,0.451 0.576,0.869 0.931,1.233 0.307,0.305 0.619,0.546 0.926,0.726 1.082,0.623 2.092,0.447 2.48,-0.559 0.514,-1.3 -0.181,-3.453 -1.55,-4.83 -0.299,-0.298 -0.598,-0.527 -0.899,-0.699 -0.07,-0.041 -0.14,-0.078 -0.213,-0.111 l 0,-0.019 -6.201,-3.231 4.512,7.498 0.014,-0.008 m -0.004,-17.654 -4.444,2.426 6.198,3.767 0,-0.015 c 0.06,0.041 0.123,0.077 0.183,0.113 0.311,0.178 0.619,0.291 0.93,0.323 1.359,0.171 2.037,-1.208 1.506,-3.076 -0.407,-1.433 -1.403,-2.745 -2.459,-3.353 -0.323,-0.185 -0.649,-0.309 -0.965,-0.349 -0.371,-0.053 -0.688,0.018 -0.936,0.172 l -0.013,-0.008 m -5.928,-12.371 -1.527,6.047 5.384,-0.457 0,-0.016 c 0.319,-0.024 0.608,-0.127 0.842,-0.352 0.895,-0.824 0.666,-2.867 -0.496,-4.563 -0.48,-0.692 -1.043,-1.216 -1.598,-1.536 -0.806,-0.465 -1.599,-0.506 -2.121,-0.013 -0.236,0.229 -0.4,0.526 -0.47,0.898 l -0.014,-0.008"
             style="fill:#b21010;fill-opacity:1;fill-rule:nonzero;stroke:none"
             id="path58"
             inkscape:connector-curvature="0" />
        </g>
        <g
           id="g60"
           transform="translate(69.1094,88.3066)">
          <path
             d="m 0,0 c -12.855,-10.299 -22.531,-28.91 -22.488,-44.535 0.047,-15.621 9.795,-23.031 22.668,-18.479 l -0.059,20.836 c -3.213,0.283 -5.381,3.02 -5.394,7.584 -0.014,4.559 2.132,9.792 5.332,13.774 L 0,0 m -4.922,-22.916 -5.385,0.426 0,0.016 c -0.318,0.024 -0.607,0.142 -0.853,0.345 -0.881,0.835 -0.654,2.891 0.508,4.574 0.47,0.693 1.033,1.217 1.591,1.539 0.799,0.463 1.594,0.503 2.114,0.014 0.234,-0.227 0.4,-0.527 0.484,-0.888 l 0.014,0.007 1.527,-6.033 m -9.373,-13.898 c -0.291,-0.168 -0.59,-0.286 -0.891,-0.332 -1.373,-0.206 -2.089,1.128 -1.587,3.017 0.392,1.455 1.4,2.796 2.476,3.42 0.307,0.176 0.615,0.293 0.92,0.339 0.371,0.056 0.688,0.002 0.949,-0.148 l 0.012,0.024 4.527,-2.279 -6.185,-3.92 -0.014,0.009 c -0.068,-0.047 -0.137,-0.089 -0.207,-0.13 m 0.174,-7.168 0.014,0.023 6.185,3.385 -4.402,-7.532 -0.014,-0.008 c -0.26,-0.45 -0.574,-0.886 -0.93,-1.249 -0.316,-0.327 -0.644,-0.58 -0.966,-0.768 -1.059,-0.611 -2.069,-0.459 -2.483,0.5 -0.525,1.26 0.129,3.404 1.487,4.802 0.306,0.325 0.626,0.573 0.931,0.752 0.059,0.034 0.119,0.067 0.178,0.095 m 5.174,-13.506 c -0.553,-0.321 -1.114,-0.444 -1.59,-0.306 -1.168,0.351 -1.408,2.123 -0.535,3.97 0.234,0.497 0.521,0.931 0.849,1.328 l 0,0.014 5.354,6.659 -1.477,-7.784 -0.013,-0.008 c -0.08,-0.457 -0.231,-0.936 -0.477,-1.445 -0.518,-1.088 -1.309,-1.966 -2.111,-2.428"
             style="fill:#a00000;fill-opacity:1;fill-rule:nonzero;stroke:none"
             id="path62"
             inkscape:connector-curvature="0" />
        </g>
        <g
           id="g64"
           transform="translate(74.3574,93.8369)">
          <path
             d="m 0,0 -5.256,-3.032 0.008,-2.498 0.059,-20.821 c 1.546,1.922 3.335,3.552 5.25,4.678 L 0,0 m -5.127,-47.708 0.059,-20.836 0.006,-2.479 5.365,3.095 5.361,3.098 -5.471,-3.161 -0.062,21.671 c -1.914,-1.081 -3.707,-1.519 -5.258,-1.388"
             style="fill:#ef683f;fill-opacity:1;fill-rule:nonzero;stroke:none"
             id="path66"
             inkscape:connector-curvature="0" />
        </g>
        <g
           id="g68"
           transform="translate(79.8301,96.9961)">
          <path
             d="m 0,0 -5.363,-3.096 -0.11,-0.063 0.061,-21.673 c 0.037,0.022 0.072,0.044 0.109,0.063 1.955,1.129 3.787,1.587 5.367,1.451 L 0.008,-2.498 0,0 m 0.127,-44.671 c -1.576,-1.962 -3.406,-3.616 -5.359,-4.745 -0.038,-0.022 -0.073,-0.043 -0.11,-0.063 l 0.063,-21.671 5.47,3.161 -0.005,2.478 -0.059,20.84"
             style="fill:#ff794a;fill-opacity:1;fill-rule:nonzero;stroke:none"
             id="path70"
             inkscape:connector-curvature="0" />
        </g>
        <g
           id="g72"
           transform="translate(74.5273,72.2275)">
          <path
             d="m 0,0 0.07,-24.647 c -5.925,-3.422 -10.742,-0.68 -10.761,6.132 0.013,-4.564 2.181,-7.3 5.394,-7.584 1.551,-0.13 3.344,0.307 5.258,1.388 0.037,0.021 0.072,0.042 0.109,0.064 1.953,1.128 3.784,2.783 5.36,4.745 3.199,3.979 5.345,9.208 5.332,13.772 C 10.748,-1.568 8.58,1.173 5.367,1.45 3.787,1.587 1.955,1.129 0,0"
             style="fill:#ff794a;fill-opacity:1;fill-rule:nonzero;stroke:none"
             id="path74"
             inkscape:connector-curvature="0" />
        </g>
        <g
           id="g76"
           transform="translate(74.5273,72.2275)">
          <path
             d="m 0,0 c -0.037,-0.02 -0.072,-0.041 -0.109,-0.063 -1.914,-1.126 -3.704,-2.756 -5.25,-4.678 -3.2,-3.982 -5.346,-9.215 -5.332,-13.774 0.019,-6.812 4.836,-9.554 10.761,-6.132 L 0,0"
             style="fill:#ef683f;fill-opacity:1;fill-rule:nonzero;stroke:none"
             id="path78"
             inkscape:connector-curvature="0" />
        </g>
        <g
           id="g80"
           transform="translate(84.9375,54.4316)">
          <path
             d="m 0,0 1.527,-6.047 0.014,0.008 c 0.07,-0.371 0.234,-0.669 0.471,-0.898 0.521,-0.493 1.314,-0.452 2.121,0.013 0.554,0.32 1.117,0.844 1.597,1.536 1.163,1.697 1.391,3.74 0.497,4.564 -0.235,0.224 -0.524,0.328 -0.842,0.351 l 0,0.016 L 0,0"
             style="fill:#ffcd50;fill-opacity:1;fill-rule:nonzero;stroke:none"
             id="path82"
             inkscape:connector-curvature="0" />
        </g>
        <g
           id="g84"
           transform="translate(94.1465,66.9492)">
          <path
             d="m 0,0 -6.197,-3.768 4.443,-2.425 0.014,0.007 c 0.248,-0.153 0.564,-0.224 0.935,-0.171 0.317,0.04 0.643,0.164 0.965,0.349 1.057,0.608 2.053,1.92 2.459,3.353 C 3.15,-0.787 2.473,0.592 1.113,0.421 0.803,0.389 0.494,0.275 0.184,0.098 0.123,0.062 0.061,0.025 0,-0.016 L 0,0"
             style="fill:#ffcd50;fill-opacity:1;fill-rule:nonzero;stroke:none"
             id="path86"
             inkscape:connector-curvature="0" />
        </g>
        <g
           id="g88"
           transform="translate(94.2539,80.3691)">
          <path
             d="m 0,0 c -0.307,-0.18 -0.619,-0.421 -0.926,-0.727 -0.355,-0.363 -0.67,-0.781 -0.931,-1.232 l -0.014,0.008 -4.512,-7.498 6.201,3.231 0,0.019 c 0.073,0.033 0.143,0.07 0.213,0.111 0.301,0.172 0.6,0.401 0.899,0.699 1.369,1.377 2.064,3.53 1.55,4.83 C 2.092,0.447 1.082,0.623 0,0"
             style="fill:#ffcd50;fill-opacity:1;fill-rule:nonzero;stroke:none"
             id="path90"
             inkscape:connector-curvature="0" />
        </g>
        <g
           id="g92"
           transform="translate(88.9531,88.9814)">
          <path
             d="m 0,0 c -0.801,-0.464 -1.592,-1.338 -2.115,-2.431 -0.233,-0.498 -0.397,-0.988 -0.463,-1.432 l -0.014,-0.009 -1.504,-7.783 5.369,6.634 -0.002,0.017 C 1.6,-4.609 1.887,-4.161 2.121,-3.679 2.994,-1.833 2.768,-0.038 1.602,0.3 1.121,0.442 0.557,0.319 0,0"
             style="fill:#ffcd50;fill-opacity:1;fill-rule:nonzero;stroke:none"
             id="path94"
             inkscape:connector-curvature="0" />
        </g>
        <g
           id="g96"
           transform="translate(64.2402,42.4834)">
          <path
             d="m 0,0 -5.354,-6.659 0,-0.014 c -0.328,-0.396 -0.615,-0.831 -0.849,-1.328 -0.873,-1.847 -0.633,-3.619 0.535,-3.97 0.477,-0.137 1.037,-0.014 1.59,0.306 0.803,0.462 1.594,1.34 2.111,2.429 0.246,0.508 0.397,0.987 0.477,1.444 L -1.477,-7.784 0,0"
             style="fill:#ffcd50;fill-opacity:1;fill-rule:nonzero;stroke:none"
             id="path98"
             inkscape:connector-curvature="0" />
        </g>
        <g
           id="g100"
           transform="translate(55.002,44.3477)">
          <path
             d="m 0,0 -0.014,-0.023 c -0.058,-0.028 -0.119,-0.061 -0.177,-0.095 -0.305,-0.179 -0.625,-0.427 -0.932,-0.752 -1.357,-1.398 -2.012,-3.542 -1.486,-4.802 0.414,-0.959 1.423,-1.111 2.482,-0.5 0.322,0.188 0.65,0.441 0.967,0.768 0.355,0.363 0.67,0.799 0.93,1.249 L 1.783,-4.147 6.186,3.385 0,0"
             style="fill:#ffcd50;fill-opacity:1;fill-rule:nonzero;stroke:none"
             id="path102"
             inkscape:connector-curvature="0" />
        </g>
        <g
           id="g104"
           transform="translate(54.8125,57.5977)">
          <path
             d="m 0,0 c -1.076,-0.624 -2.084,-1.965 -2.477,-3.42 -0.502,-1.889 0.215,-3.223 1.588,-3.017 0.301,0.046 0.6,0.164 0.891,0.332 0.07,0.041 0.139,0.083 0.207,0.13 L 0.223,-5.984 6.408,-2.064 1.881,0.215 1.869,0.191 C 1.607,0.341 1.291,0.395 0.92,0.339 0.615,0.293 0.307,0.176 0,0"
             style="fill:#ffcd50;fill-opacity:1;fill-rule:nonzero;stroke:none"
             id="path106"
             inkscape:connector-curvature="0" />
        </g>
        <g
           id="g108"
           transform="translate(60.0488,72.291)">
          <path
             d="M 0,0 C -0.559,-0.322 -1.121,-0.847 -1.592,-1.539 -2.754,-3.223 -2.98,-5.278 -2.1,-6.113 c 0.246,-0.203 0.536,-0.322 0.854,-0.345 l 0,-0.017 L 4.139,-6.9 2.611,-0.867 2.598,-0.874 C 2.514,-0.514 2.348,-0.213 2.113,0.014 1.594,0.503 0.799,0.463 0,0"
             style="fill:#ffcd50;fill-opacity:1;fill-rule:nonzero;stroke:none"
             id="path110"
             inkscape:connector-curvature="0" />
        </g>
      </g>
    </g>
  </g>
</svg>
